<svg width="24" height="24" viewBox="0 0 24 24" fill="none" xmlns="http://www.w3.org/2000/svg">
<path d="M12 2C6.48 2 2 6.48 2 12C2 17.52 6.48 22 12 22C17.52 22 22 17.52 22 12C22 6.48 17.52 2 12 2ZM12 20C7.58 20 4 16.42 4 12C4 7.58 7.58 4 12 4C16.42 4 20 7.58 20 12C20 16.42 16.42 20 12 20Z" fill="#FFD700"/>
<path d="M12 17C10.34 17 9 15.66 9 14C9 12.34 10.34 11 12 11C13.66 11 15 12.34 15 14C15 15.66 13.66 17 12 17ZM12 13C11.45 13 11 13.45 11 14C11 14.55 11.45 15 12 15C12.55 15 13 14.55 13 14C13 13.45 12.55 13 12 13Z" fill="#FFD700"/>
<path d="M12 6V8C14.76 8 17 10.24 17 13H19C19 9.13 15.87 6 12 6Z" fill="#FFD700"/>
</svg>
